<?xml version="1.0" encoding="utf-8"?>
<!-- Generator: Adobe Illustrator 16.0.0, SVG Export Plug-In . SVG Version: 6.00 Build 0)  -->
<!DOCTYPE svg PUBLIC "-//W3C//DTD SVG 1.1//EN" "http://www.w3.org/Graphics/SVG/1.1/DTD/svg11.dtd">
<svg version="1.1" id="Layer_1" xmlns="http://www.w3.org/2000/svg" xmlns:xlink="http://www.w3.org/1999/xlink" x="0px" y="0px"
	 width="360px" height="360px" viewBox="0 0 360 360" enable-background="new 0 0 360 360" xml:space="preserve">
<path fill="#069EB1" d="M253.023,162.221l42.292-37.611L188.086,30.126L80.838,124.628l42.495,37.437l-42.495,37.44l107.248,94.498
	l107.247-94.498L253.023,162.221z M95.449,124.628l92.637-81.624l92.656,81.644l-35.017,31.143l-14.079-12.403l21.505-18.497
	l-64.999-57.27l-68.229,57.675l22.572,19.887l-11.859,10.448L95.449,124.628z M176.496,127.891l11.561-10.029l16.487,14.52
	l6.393-7.245l-22.826-20.109l-26.295,22.804l79.254,69.834l-52.972,46.049l-52.424-45.885l33.073-29.516l30.498,26.869
	l-11.346,10.969l-17.463-15.026l-6.303,7.32l24.139,20.783l25.207-24.374l-78.774-69.409l53.316-45.057l50.412,44.416
	l-33.112,28.484L176.496,127.891z M95.449,199.505l54.351-47.883l11.643,10.26l-40.357,36.016l66.993,58.641l67.662-58.822
	l-43.106-37.982l11.614-9.989l56.476,49.761l-92.638,81.621L95.449,199.505z"/>
<g>
	<path fill="#013333" d="M88.191,316.782c0,4.61-3.47,7.898-10.273,7.898c-3.745,0-6.712-0.912-8.947-2.008v-2.422
		c2.008,1.142,4.884,2.191,8.764,2.191c4.612,0,8.127-1.78,8.127-5.66c0-9.267-16.754-4.292-16.754-14.38
		c0-4.063,2.694-7.941,9.679-7.941c3.101,0,5.705,0.774,7.804,1.781v2.327c-1.916-1.004-4.518-1.871-7.578-1.871
		c-5.022,0-7.577,2.189-7.577,5.704C71.436,310.071,88.191,305.599,88.191,316.782"/>
	<path fill="#013333" d="M122.934,309.572c0,9.904-4.382,15.108-13.558,15.108c-9.13,0-13.512-5.204-13.512-15.108
		c0-9.907,4.382-15.111,13.512-15.111C118.551,294.461,122.934,299.665,122.934,309.572 M120.651,309.572
		c0-8.676-3.38-12.966-11.275-12.966c-7.852,0-11.277,4.29-11.277,12.966c0,8.716,3.425,12.963,11.277,12.963
		C117.271,322.535,120.651,318.288,120.651,309.572"/>
	<path fill="#013333" d="M144.805,322.535c2.92,0,5.798-0.549,8.537-1.599v2.146c-2.782,1.005-5.797,1.599-8.765,1.599
		c-8.08,0-13.604-4.292-13.604-15.065s5.524-15.154,13.558-15.154c3.057,0,6.028,0.593,8.811,1.688v2.145
		c-2.738-1.047-5.617-1.688-8.537-1.688c-6.984,0-11.598,3.423-11.598,13.009C133.208,319.203,137.865,322.535,144.805,322.535"/>
	<path fill="#013333" d="M179.824,324.27l-7.9-12.189h-8.444v12.189h-2.283v-29.353h10.407c6.209,0,9.724,3.059,9.724,8.446
		c0,6.071-4.658,7.988-7.029,8.353l8.17,12.554H179.824z M163.48,297.063v12.874h7.988c5.844,0,7.578-2.97,7.578-6.438
		c0-3.286-1.506-6.437-7.578-6.437H163.48z"/>
	<path fill="#013333" d="M215.203,324.27h-2.419c-1.274-3.059-2.462-6.208-3.742-9.313h-13.783l-3.7,9.313h-2.466
		c4.018-9.769,7.945-19.583,11.963-29.353h2.235L215.203,324.27z M196.123,312.812h12.099l-6.073-15.155L196.123,312.812z"/>
	<polygon fill="#013333" points="239.679,294.917 239.679,297.108 229.04,297.108 229.04,324.27 226.759,324.27 226.759,297.108 
		216.077,297.108 216.077,294.917 	"/>
	<polygon fill="#013333" points="249.266,308.385 263.331,308.385 263.331,310.576 249.266,310.576 249.266,322.124 
		265.202,322.124 265.202,324.27 247.03,324.27 247.03,294.917 265.202,294.917 265.202,297.017 249.266,297.017 	"/>
	<path fill="#013333" d="M292.183,316.782c0,4.61-3.467,7.898-10.268,7.898c-3.746,0-6.713-0.912-8.95-2.008v-2.422
		c2.009,1.142,4.884,2.191,8.764,2.191c4.611,0,8.129-1.78,8.129-5.66c0-9.267-16.755-4.292-16.755-14.38
		c0-4.063,2.691-7.941,9.676-7.941c3.104,0,5.709,0.774,7.804,1.781v2.327c-1.912-1.004-4.517-1.871-7.575-1.871
		c-5.021,0-7.575,2.189-7.575,5.704C275.432,310.071,292.183,305.599,292.183,316.782"/>
	<path fill="#013333" d="M307.2,296.529c0,3.287-2.674,5.944-5.961,5.944c-3.283,0-5.979-2.657-5.979-5.944
		c0-3.289,2.696-5.962,5.979-5.962C304.526,290.567,307.2,293.24,307.2,296.529 M306.75,296.529c0-3.037-2.477-5.529-5.511-5.529
		c-3.037,0-5.525,2.492-5.525,5.529c0,3.034,2.488,5.509,5.525,5.509C304.273,302.038,306.75,299.563,306.75,296.529
		 M302.124,297.032l2.045,2.946h-0.619l-1.967-2.872h-1.986v2.872h-0.527v-6.901h2.531c1.445,0,2.33,0.67,2.33,1.97
		C303.931,296.51,302.793,296.979,302.124,297.032 M299.597,296.6h1.972c1.423,0,1.82-0.686,1.82-1.516
		c0-0.814-0.397-1.518-1.82-1.518h-1.972V296.6z"/>
</g>
</svg>
